<svg width="36" height="36" viewBox="0 0 36 36" fill="none" xmlns="http://www.w3.org/2000/svg">
<path d="M33.2305 7.50977V21.2227C32.659 20.7007 32.0155 20.2569 31.3174 19.9053V9.5918H26.4023V19.0723C25.7375 19.158 25.0968 19.3196 24.4893 19.5498V9.5918H11.5117V26.4082H19.0723C19.0264 26.7658 19 27.13 19 27.5C19 27.8351 19.0219 28.1653 19.0596 28.4902H11.5117V31.1484H19.8213C20.1848 31.9122 20.6587 32.613 21.2227 33.2305H9.59863L2.76953 28.4902V2.76953H26.4023L33.2305 7.50977ZM9.59863 30.626V28.4902H6.0293L9.59863 30.626ZM4.68262 26.4082H9.59863V9.10156L4.68262 5.7041V26.4082ZM10.7871 7.45605L10.7559 7.50977H24.4893V4.85156H7.01758L10.7871 7.45605ZM26.4023 7.50977H29.9521L26.4023 5.18848V7.50977Z" fill="#6C707E"/>
</svg>
