<svg width="16" height="16" viewBox="0 0 16 16" fill="none" xmlns="http://www.w3.org/2000/svg">
<path d="M14.7695 3.33789V8.61426C14.5023 8.45786 14.2176 8.32867 13.9189 8.22949V4.2627H11.7344V8.06543C11.44 8.11589 11.1556 8.19513 10.8838 8.2998V4.2627H5.11621V11.7373H8.06543C8.02309 11.9853 8 12.24 8 12.5C8 12.5543 8.002 12.6083 8.00391 12.6621H5.11621V13.8438H8.2041C8.30609 14.1701 8.44559 14.4798 8.61523 14.7695H4.26562L1.23047 12.6621V1.23047H11.7344L14.7695 3.33789ZM4.26562 13.6113V12.6621H2.67969L4.26562 13.6113ZM2.08105 11.7373H4.26562V4.04492L2.08105 2.53516V11.7373ZM4.79395 3.31348L4.78027 3.33789H10.8838V2.15625H3.11914L4.79395 3.31348ZM11.7344 3.33789H13.3125L11.7344 2.30566V3.33789Z" fill="#6C707E"/>
</svg>
