<svg width="13" height="13" viewBox="0 0 13 13" fill="none" xmlns="http://www.w3.org/2000/svg">
<path d="M12 2.71191V7.70898C11.7844 7.58412 11.5537 7.48229 11.3096 7.41113V3.46387H9.53418V7.41504C9.28948 7.48755 9.05858 7.59126 8.84277 7.71777V3.46387H4.15723V9.53613H7.41504C7.34407 9.77614 7.30051 10.0279 7.28906 10.2881H4.15723V11.248H7.39453C7.46643 11.5149 7.57456 11.7663 7.70996 12H3.46582L1 10.2881V1H9.53418L12 2.71191ZM3.46582 11.0596V10.2881H2.17676L3.46582 11.0596ZM1.69043 9.53613H3.46582V3.28613L1.69043 2.05957V9.53613ZM3.89551 2.69238L3.88379 2.71191H8.84277V1.75195H2.53418L3.89551 2.69238ZM9.53418 2.71191H10.8164L9.53418 1.87402V2.71191Z" fill="#CED0D6"/>
</svg>
