<svg width="20" height="20" viewBox="0 0 20 20" fill="none" xmlns="http://www.w3.org/2000/svg">
<path d="M18.4619 4.17188V10.5049C18.1177 10.4133 17.7626 10.3485 17.3984 10.3145V5.3291H14.668V10.6396C14.2971 10.7674 13.9416 10.9276 13.6045 11.1172V5.3291H6.39551V14.6709H10.6396C10.5117 15.0427 10.4153 15.4292 10.3564 15.8281H6.39551V17.3047H10.3086C10.34 17.7015 10.4054 18.0883 10.5049 18.4619H5.33301L1.53809 15.8281V1.53809H14.668L18.4619 4.17188ZM5.33301 17.0146V15.8281H3.34961L5.33301 17.0146ZM2.60156 14.6709H5.33301V5.05664L2.60156 3.16895V14.6709ZM5.99316 4.14258L5.97559 4.17188H13.6045V2.69531H3.89844L5.99316 4.14258ZM14.668 4.17188H16.6406L14.668 2.88281V4.17188Z" fill="#6C707E"/>
</svg>
